# xmcd CD database file
#
# Track frame offsets:
#	150
#	15669
#	42490
#	68438
#	85214
#	109558
#	139400
#	154151
#	173938
#	200166
#	218473
#
# Disc length: 3150 seconds
#
# Revision: 0
# Processed by: cddbd v1.5.1PL0 Copyright (c) Steve Scherf et al.
# Submitted via: CDex 1.51
#
DISCID=940c4c0b
DTITLE=Bom de Tres - Bom de Tres
DYEAR=1900
DGENRE=Jazz
TTITLE0=Baiaozinho
TTITLE1=Batida Diferente
TTITLE2=Chega de Saudade
TTITLE3=Deixa
TTITLE4=Dindi
TTITLE5=Night in Tunisia
TTITLE6=Tema Feliz
TTITLE7=Voce
TTITLE8=Pr´um Samba
TTITLE9=Nos
TTITLE10=A Bossa (Registro)
EXTD=
EXTT0=
EXTT1=
EXTT2=
EXTT3=
EXTT4=
EXTT5=
EXTT6=
EXTT7=
EXTT8=
EXTT9=
EXTT10=
PLAYORDER=
